<svg width="0" height="0" class="hidden">

  <symbol version="1.1" id="css" xmlns="http://www.w3.org/2000/svg" xmlns:xlink="http://www.w3.org/1999/xlink" x="0px" y="0px" xml:space="preserve" viewBox="0 0 512 512">

    <g>

      <path d="M478.89,143.93v303.85c0,35.33-28.64,63.97-63.97,63.97h-31.98v-31.98h31.98c17.66,0,31.98-14.32,31.98-31.98

		V143.93h-63.97c-26.5,0-47.98-21.48-47.98-47.98V31.99H159.05c-17.66,0-31.98,14.32-31.98,31.98v287.86H95.08V63.97

		C95.08,28.64,123.72,0,159.05,0h175.91L478.89,143.93z M139.76,474.68c0.37,10.19,5.03,19.75,12.83,26.32

		c4.16,3.45,9.24,6.14,15.29,8.06c6.08,1.95,13.15,2.91,21.27,2.91c10.81,0,19.96-1.7,27.47-5.05c7.55-3.36,13.31-8.06,17.24-14.07

		c4-6.04,5.98-13.05,5.98-20.98c0-7.16-1.44-13.11-4.29-17.91c-2.93-4.79-7.06-8.73-11.99-11.42c-5.67-3.13-11.77-5.39-18.1-6.72

		l-19.86-4.61c-4.68-0.86-9.1-2.79-12.92-5.63c-2.96-2.28-4.67-5.83-4.61-9.56c0-4.99,1.98-9.08,5.92-12.28

		c4-3.23,9.47-4.86,16.38-4.86c4.57,0,8.51,0.74,11.83,2.17c3.06,1.25,5.77,3.24,7.87,5.79c1.97,2.37,3.29,5.22,3.84,8.25h23.99

		c-0.4-6.51-2.62-12.78-6.4-18.1c-4.04-5.74-9.57-10.27-15.99-13.11c-7.85-3.45-16.37-5.11-24.95-4.86c-9.37,0-17.62,1.6-24.82,4.8

		c-7.2,3.17-12.79,7.68-16.86,13.47c-4.06,5.82-6.08,12.63-6.08,20.44c0,6.43,1.28,12.03,3.9,16.76c2.62,4.77,6.4,8.64,11.26,11.74

		c4.86,3.04,10.62,5.34,17.24,6.81l19.77,4.61c6.62,1.57,11.55,3.61,14.81,6.17c3.24,2.47,5.05,6.36,4.86,10.43

		c0.06,3.3-0.89,6.53-2.72,9.28c-2.06,2.81-4.89,4.95-8.16,6.17c-3.55,1.5-7.96,2.24-13.21,2.24c-3.74,0-7.13-0.42-10.23-1.28

		l-7.93-3.68c-4.3-2.79-7.26-7.23-8.16-12.28H139.76z M56.89,437.96c0-7.93,1.09-14.71,3.26-20.25c1.9-5.11,5.26-9.55,9.66-12.76

		c4.49-3,9.8-4.53,15.19-4.38c4.8,0,9.05,1.02,12.73,3.1c3.6,1.93,6.61,4.8,8.7,8.32c2.23,3.7,3.54,7.88,3.84,12.19h24.47v-2.3

		c-0.43-11.91-5.84-23.1-14.9-30.83c-4.59-3.89-9.91-6.85-15.64-8.7c-6.24-2.11-12.79-3.16-19.38-3.1

		c-11.39,0-21.11,2.37-29.14,7.13c-8,4.73-14.07,11.48-18.29,20.21c-4.16,8.76-6.27,19.19-6.27,31.31v15.93

		c0,12.12,2.05,22.52,6.17,31.22c4.19,8.67,10.3,15.35,18.29,20.02c8,4.64,17.72,6.94,29.23,6.94c9.37,0,17.72-1.76,25.11-5.25

		c7.36-3.52,13.24-8.32,17.59-14.52c4.41-6.35,6.92-13.83,7.23-21.56v-2.43H110.3c-0.3,4.12-1.6,8.1-3.77,11.61

		c-2.13,3.4-5.14,6.16-8.7,8c-3.99,1.93-8.39,2.89-12.83,2.78c-5.4,0.15-10.73-1.32-15.29-4.22c-4.38-3.12-7.71-7.49-9.56-12.54

		c-2.34-6.42-3.45-13.22-3.26-20.05v-15.83L56.89,437.96z M247.96,489.04c-2.12-4.5-3.33-9.39-3.55-14.36h24.44

		c0.9,5.05,3.85,9.5,8.16,12.28c2.24,1.57,4.93,2.78,8,3.65c3.04,0.9,6.43,1.31,10.2,1.31c5.25,0,9.63-0.74,13.21-2.24

		c3.26-1.22,6.1-3.36,8.16-6.17c1.83-2.74,2.78-5.98,2.72-9.28c0.18-4.07-1.65-7.97-4.89-10.43c-3.23-2.56-8.19-4.61-14.81-6.17

		l-19.77-4.57c-6.09-1.29-11.92-3.6-17.24-6.84c-4.69-2.88-8.56-6.92-11.23-11.74c-2.72-5.16-4.08-10.93-3.93-16.76

		c0-7.8,2.01-14.62,6.08-20.44c4.06-5.79,9.69-10.3,16.86-13.5c7.2-3.2,15.48-4.77,24.85-4.77c9.72,0,18.04,1.6,24.92,4.86

		c6.94,3.26,12.28,7.64,15.99,13.11c3.84,5.44,5.98,11.48,6.4,18.1h-23.99c-0.55-3.04-1.87-5.88-3.84-8.25

		c-2.1-2.55-4.81-4.54-7.87-5.79c-3.75-1.53-7.78-2.27-11.83-2.17c-6.91,0-12.38,1.6-16.38,4.86c-3.8,2.93-5.99,7.49-5.89,12.28

		c0,3.87,1.5,7.04,4.57,9.6c3.82,2.83,8.24,4.75,12.92,5.6l19.86,4.57c6.94,1.6,12.99,3.84,18.1,6.75

		c5.12,2.88,9.12,6.72,11.99,11.45c2.88,4.73,4.32,10.71,4.32,17.91c0,7.9-2.01,14.9-6.01,20.98c-4.26,6.26-10.25,11.14-17.24,14.04

		c-7.48,3.36-16.63,5.05-27.44,5.05c-8.12,0-15.22-0.96-21.27-2.88c-5.57-1.67-10.76-4.41-15.29-8.06

		C253.33,497.74,250.17,493.65,247.96,489.04z"></path>

    </g>

  </symbol>

</svg>