<svg width="0" height="0" class="hidden">

  <symbol version="1.1" id="html" xmlns="http://www.w3.org/2000/svg" xmlns:xlink="http://www.w3.org/1999/xlink" x="0px" y="0px" xml:space="preserve" viewBox="0 0 512 512">

    <g>

      <path d="M448.31,145.3v209.98h-32.3V145.3H351.4c-26.76,0-48.46-21.7-48.46-48.46V32.23H125.26

		c-17.84,0-32.3,14.46-32.3,32.3v290.74h-32.3V64.53c0-35.68,28.93-64.61,64.61-64.61h177.68L448.31,145.3z M133.79,382.74v129.19

		h-25.55v-55.37H53.87v55.37H28.35V382.74H53.9v52.53h54.34v-52.53h25.52H133.79z M206.51,404.12v107.8h-25.65v-107.8h-36.6v-21.39

		h98.98v21.39H206.51z M276.8,511.92v-85.93h1.23l30.75,69.75h16.67l30.56-69.78h1.23v85.96h23.1V382.74H354.5l-36.83,83.86h-0.84

		L280,382.74H254v129.19L276.8,511.92z M428.96,490.15h54.79v21.77h-80.34V382.74h25.52v107.41H428.96z"></path>

    </g>

  </symbol>

</svg>