<?xml version="1.0" encoding="utf-8"?>
<!-- Generator: Adobe Illustrator 27.5.0, SVG Export Plug-In . SVG Version: 6.00 Build 0)  -->
<svg version="1.1" id="Layer_1" xmlns="http://www.w3.org/2000/svg" xmlns:xlink="http://www.w3.org/1999/xlink" x="0px" y="0px"
	 viewBox="0 0 512 512" style="enable-background:new 0 0 512 512;" xml:space="preserve">
<style type="text/css">
	.st0{fill-rule:evenodd;clip-rule:evenodd;}
</style>
<g>
	<path class="st0" d="M478.9,143.94v303.87c0,35.33-28.64,63.97-63.97,63.97h-31.99v-31.99h31.99c17.67,0,31.99-14.32,31.99-31.99
		V143.94h-63.97c-26.5,0-47.98-21.48-47.98-47.98V31.99H159.04c-17.67,0-31.99,14.32-31.99,31.99v287.87H95.07V63.98
		C95.07,28.64,123.71,0,159.04,0h175.92L478.9,143.94z M129.45,474.71c0.37,10.19,5.03,19.75,12.83,26.32
		c4.16,3.45,9.21,6.14,15.29,8.06c6.08,1.95,13.15,2.91,21.27,2.91c10.81,0,19.96-1.7,27.44-5.05c7.58-3.36,13.31-8.06,17.27-14.07
		c4.03-6.24,6.12-13.55,5.98-20.98c0-7.16-1.44-13.11-4.32-17.91c-2.93-4.79-7.06-8.73-11.99-11.42
		c-5.66-3.13-11.75-5.39-18.07-6.72l-19.86-4.61c-4.69-0.86-9.13-2.78-12.95-5.63c-2.95-2.29-4.64-5.83-4.57-9.56
		c0-4.99,1.95-9.08,5.89-12.28c4-3.23,9.47-4.86,16.41-4.86c4.57,0,8.51,0.74,11.83,2.18c3.05,1.25,5.74,3.24,7.84,5.79
		c1.97,2.37,3.29,5.22,3.84,8.25h23.99c-0.39-6.51-2.59-12.78-6.37-18.1c-4.04-5.74-9.57-10.27-15.99-13.11
		c-7.85-3.45-16.38-5.11-24.95-4.86c-9.37,0-17.66,1.6-24.82,4.8c-7.2,3.17-12.79,7.68-16.89,13.47
		c-4.06,5.82-6.08,12.63-6.08,20.44c0,6.43,1.28,12.03,3.93,16.76c2.62,4.77,6.37,8.64,11.23,11.74c4.89,3.04,10.62,5.34,17.27,6.81
		l19.77,4.61c6.62,1.57,11.51,3.61,14.78,6.17c3.25,2.46,5.08,6.36,4.89,10.43c0.05,3.3-0.9,6.53-2.72,9.28
		c-2.06,2.81-4.89,4.95-8.16,6.17c-3.55,1.5-7.96,2.24-13.21,2.24c-3.74,0-7.16-0.42-10.24-1.28l-7.93-3.68
		c-4.3-2.79-7.26-7.23-8.16-12.28H129.45z M31.1,473.11c0,5.28,0.86,10.24,2.62,14.91c1.76,4.7,4.35,8.86,7.77,12.47
		c3.52,3.61,7.84,6.46,13.02,8.54c5.25,1.98,11.32,2.97,18.2,2.97c13.43,0,23.93-3.68,31.47-11.07
		c7.61-7.36,11.45-18.07,11.45-32.11v-87.16h-25.3v87.8c0,6.43-1.47,11.42-4.41,14.91c-2.94,3.52-7.45,5.25-13.5,5.25
		c-5.93,0.28-11.52-2.75-14.52-7.87c-1.48-2.64-2.28-5.61-2.33-8.64L31.1,473.11z M316,381.66h28.56l-40.75,64.2l40.11,63.68h-29.04
		l-27.19-45.26h-1.12l-27.28,45.26h-27.54l39.66-64.48l-39.28-63.43h29.78l26.61,46h1.15l26.32-46V381.66z"/>
</g>
</svg>
