<?xml version="1.0" encoding="utf-8"?>
<!-- Generator: Adobe Illustrator 27.5.0, SVG Export Plug-In . SVG Version: 6.00 Build 0)  -->
<svg version="1.1" id="Layer_1" xmlns="http://www.w3.org/2000/svg" xmlns:xlink="http://www.w3.org/1999/xlink" x="0px" y="0px"
	 viewBox="0 0 512 512" style="enable-background:new 0 0 512 512;" xml:space="preserve">
<style type="text/css">
	.st0{fill-rule:evenodd;clip-rule:evenodd;}
</style>
<g>
	<path class="st0" d="M447.85,143.94v207.91h-31.99V143.94h-63.97c-26.5,0-47.98-21.48-47.98-47.98V31.99H128
		c-17.67,0-31.99,14.32-31.99,31.99v287.87H64.03V63.97C64.03,28.64,92.67,0,128,0h175.92L447.85,143.94z M43.43,489.06
		c-2.12-4.5-3.33-9.39-3.55-14.36h24.47c0.9,5.05,3.85,9.5,8.16,12.28c2.24,1.57,4.89,2.78,7.96,3.65c3.04,0.9,6.46,1.31,10.2,1.31
		c5.25,0,9.66-0.74,13.21-2.24c3.26-1.22,6.1-3.37,8.16-6.17c1.83-2.74,2.78-5.98,2.72-9.28c0.18-4.07-1.65-7.97-4.89-10.43
		c-3.23-2.56-8.16-4.61-14.78-6.17l-19.8-4.57c-6.09-1.29-11.92-3.6-17.24-6.84c-4.69-2.88-8.56-6.93-11.23-11.74
		c-2.72-5.16-4.08-10.93-3.93-16.76c0-7.8,2.02-14.62,6.08-20.44c4.06-5.79,9.69-10.3,16.89-13.5c7.16-3.2,15.45-4.77,24.82-4.77
		c9.76,0,18.04,1.6,24.95,4.86c6.91,3.26,12.25,7.64,15.99,13.11c3.84,5.44,5.95,11.48,6.4,18.1h-23.99
		c-0.55-3.04-1.87-5.88-3.84-8.25c-2.11-2.56-4.83-4.55-7.9-5.79c-3.74-1.53-7.76-2.27-11.8-2.18c-6.94,0-12.41,1.6-16.41,4.86
		c-3.8,2.93-5.99,7.49-5.89,12.28c0,3.87,1.54,7.04,4.57,9.6c3.83,2.84,8.26,4.75,12.95,5.6l19.83,4.57
		c6.94,1.6,12.99,3.84,18.1,6.75c5.12,2.88,9.12,6.72,11.99,11.45c2.88,4.73,4.32,10.72,4.32,17.91c0,7.9-2.02,14.91-6.01,20.98
		c-4.26,6.26-10.25,11.14-17.24,14.04c-7.48,3.36-16.63,5.05-27.44,5.05c-8.12,0-15.23-0.96-21.27-2.88
		c-5.57-1.67-10.76-4.41-15.29-8.06C48.8,497.76,45.64,493.67,43.43,489.06z M180.13,417.73c-2.35,6.48-3.47,13.35-3.29,20.25v15.83
		c0,7.87,1.09,14.55,3.29,20.05c1.84,5.04,5.16,9.41,9.53,12.54c4.56,2.9,9.89,4.37,15.29,4.22c4.44,0.1,8.84-0.86,12.83-2.81
		c3.57-1.82,6.59-4.58,8.73-7.96c2.17-3.51,3.45-7.49,3.74-11.61h24.47v2.43c-0.31,7.73-2.82,15.21-7.23,21.56
		c-4.5,6.29-10.56,11.29-17.59,14.52c-7.88,3.61-16.47,5.4-25.14,5.25c-11.51,0-21.24-2.3-29.23-6.94
		c-7.98-4.67-14.35-11.65-18.26-20.02c-4.16-8.7-6.21-19.1-6.21-31.22v-15.93c0-12.15,2.11-22.55,6.3-31.31
		c3.9-8.43,10.25-15.49,18.23-20.25c8.09-4.73,17.82-7.1,29.17-7.1c7,0,13.47,1.02,19.42,3.1c5.98,1.98,11.19,4.89,15.64,8.7
		c9.09,7.72,14.5,18.92,14.91,30.83v2.33h-24.47c-0.3-4.3-1.61-8.46-3.84-12.15c-2.09-3.53-5.11-6.42-8.73-8.35
		c-3.9-2.12-8.29-3.19-12.73-3.1c-5.4-0.14-10.71,1.4-15.19,4.41C185.37,408.21,182.03,412.64,180.13,417.73z M263.58,474.7
		c0.37,10.19,5.03,19.75,12.83,26.32c4.13,3.45,9.21,6.14,15.29,8.06c6.08,1.95,13.11,2.91,21.27,2.91c10.81,0,19.96-1.7,27.44-5.05
		c7.55-3.36,13.31-8.06,17.27-14.07c4.03-6.24,6.12-13.55,5.98-20.98c0-7.16-1.44-13.11-4.32-17.91
		c-2.93-4.79-7.07-8.73-11.99-11.42c-5.67-3.13-11.77-5.39-18.1-6.72l-19.83-4.61c-4.69-0.86-9.13-2.78-12.95-5.63
		c-2.95-2.29-4.64-5.83-4.57-9.56c0-4.99,1.95-9.08,5.89-12.28c4-3.23,9.47-4.86,16.41-4.86c4.54,0,8.48,0.74,11.8,2.18
		c3.06,1.25,5.77,3.24,7.87,5.79c1.97,2.37,3.29,5.22,3.84,8.25h23.99c-0.4-6.51-2.61-12.79-6.4-18.1
		c-4.04-5.74-9.57-10.27-15.99-13.11c-7.85-3.45-16.38-5.11-24.95-4.86c-9.34,0-17.62,1.6-24.82,4.8
		c-7.16,3.17-12.79,7.68-16.86,13.47c-4.06,5.82-6.08,12.63-6.08,20.44c0,6.43,1.28,12.03,3.93,16.76
		c2.62,4.77,6.37,8.64,11.23,11.74c4.86,3.04,10.62,5.34,17.27,6.81l19.73,4.61c6.62,1.57,11.58,3.61,14.81,6.17
		c3.25,2.46,5.08,6.36,4.89,10.43c0.05,3.3-0.9,6.53-2.72,9.28c-2.06,2.81-4.89,4.96-8.16,6.17c-4.21,1.61-8.7,2.37-13.21,2.24
		c-3.77,0-7.16-0.42-10.24-1.28l-7.96-3.68c-4.3-2.79-7.26-7.23-8.16-12.28h-24.4H263.58z M375.6,489.06
		c-2.11-4.51-3.31-9.39-3.52-14.36h24.44c0.9,5.05,3.85,9.5,8.16,12.28c2.24,1.57,4.89,2.78,7.96,3.65c3.04,0.9,6.46,1.31,10.2,1.31
		c5.25,0,9.66-0.74,13.21-2.24c3.26-1.22,6.1-3.36,8.16-6.17c1.83-2.74,2.78-5.98,2.72-9.28c0.19-4.06-1.63-7.96-4.86-10.43
		c-3.26-2.56-8.19-4.61-14.81-6.17l-19.77-4.57c-6.1-1.29-11.94-3.6-17.27-6.84c-4.69-2.88-8.55-6.93-11.23-11.74
		c-2.72-5.16-4.08-10.93-3.93-16.76c0-7.8,2.02-14.62,6.08-20.44c4.06-5.79,9.69-10.3,16.89-13.5c7.16-3.2,15.45-4.77,24.82-4.77
		c9.76,0,18.07,1.6,24.95,4.86c6.91,3.26,12.25,7.64,15.99,13.11c3.84,5.44,5.95,11.48,6.4,18.1h-23.99
		c-0.55-3.04-1.87-5.88-3.84-8.25c-2.11-2.56-4.83-4.55-7.9-5.79c-3.74-1.53-7.76-2.27-11.8-2.18c-6.94,0-12.38,1.6-16.38,4.86
		c-3.81,2.92-6.01,7.48-5.92,12.28c0,3.87,1.54,7.04,4.57,9.6c3.83,2.84,8.26,4.75,12.95,5.6l19.83,4.57
		c6.97,1.6,12.99,3.84,18.1,6.75c5.12,2.88,9.12,6.72,11.99,11.45c2.88,4.73,4.32,10.72,4.32,17.91c0,7.9-1.98,14.91-5.98,20.98
		c-4.27,6.26-10.27,11.14-17.27,14.04c-7.48,3.36-16.63,5.05-27.44,5.05c-8.12,0-15.23-0.96-21.27-2.88
		c-5.57-1.67-10.76-4.41-15.29-8.06C380.97,497.76,377.81,493.67,375.6,489.06z"/>
</g>
</svg>
