<?xml version="1.0" encoding="utf-8"?>
<!-- Generator: Adobe Illustrator 27.5.0, SVG Export Plug-In . SVG Version: 6.00 Build 0)  -->
<svg version="1.1" id="Layer_1" xmlns="http://www.w3.org/2000/svg" xmlns:xlink="http://www.w3.org/1999/xlink" x="0px" y="0px"
	 viewBox="0 0 512 512" style="enable-background:new 0 0 512 512;" xml:space="preserve">
<style type="text/css">
	.st0{fill-rule:evenodd;clip-rule:evenodd;}
</style>
<g>
	<path class="st0" d="M478.9,143.94V447.8c0,35.33-28.64,63.97-63.97,63.97H286.99v-31.99h127.94c17.67,0,31.99-14.32,31.99-31.99
		V143.94h-63.97c-26.5,0-47.98-21.48-47.98-47.98V31.99H159.04c-17.67,0-31.99,14.32-31.99,31.99v287.87H95.07V63.97
		C95.07,28.64,123.71,0,159.04,0h175.92L478.9,143.94z M133.01,489.06c-2.12-4.5-3.33-9.39-3.55-14.36h24.47
		c0.9,5.05,3.85,9.5,8.16,12.28c2.24,1.57,4.89,2.78,7.96,3.65c3.04,0.9,6.46,1.31,10.2,1.31c5.25,0,9.66-0.74,13.21-2.24
		c3.26-1.22,6.1-3.37,8.16-6.17c1.83-2.74,2.78-5.98,2.72-9.28c0.18-4.07-1.65-7.97-4.89-10.43c-3.23-2.56-8.16-4.61-14.78-6.17
		l-19.8-4.57c-6.09-1.29-11.92-3.6-17.24-6.84c-4.69-2.88-8.56-6.93-11.23-11.74c-2.72-5.16-4.08-10.93-3.93-16.76
		c0-7.8,2.02-14.62,6.08-20.44c4.06-5.79,9.69-10.3,16.89-13.5c7.16-3.2,15.45-4.77,24.82-4.77c9.76,0,18.04,1.6,24.95,4.86
		c6.91,3.26,12.25,7.64,15.99,13.11c3.84,5.44,5.95,11.48,6.4,18.1H203.6c-0.55-3.04-1.87-5.88-3.84-8.25
		c-2.11-2.56-4.83-4.55-7.9-5.79c-3.74-1.53-7.76-2.27-11.8-2.17c-6.94,0-12.41,1.6-16.41,4.86c-3.8,2.93-5.99,7.49-5.89,12.28
		c0,3.87,1.54,7.04,4.57,9.6c3.83,2.84,8.26,4.75,12.95,5.6l19.83,4.57c6.97,1.6,12.99,3.84,18.1,6.75
		c5.12,2.88,9.12,6.72,11.99,11.45c2.88,4.73,4.32,10.72,4.32,17.91c0,7.9-2.02,14.91-6.01,20.98
		c-4.26,6.26-10.25,11.14-17.24,14.04c-7.48,3.36-16.63,5.05-27.44,5.05c-8.12,0-15.23-0.96-21.27-2.88
		c-5.57-1.67-10.76-4.41-15.29-8.06C138.38,497.76,135.22,493.67,133.01,489.06z M33.73,488.01c-1.76-4.77-2.65-9.82-2.62-14.91
		h24.47c0.06,3.03,0.86,5.99,2.33,8.64c3,5.12,8.59,8.15,14.52,7.87c6.08,0,10.56-1.76,13.5-5.25c2.94-3.52,4.41-8.48,4.41-14.91
		v-87.8h25.27v87.16c0,14.07-3.81,24.76-11.42,32.15c-7.55,7.36-18.04,11.04-31.47,11.04c-6.2,0.12-12.37-0.9-18.2-3.01
		c-4.9-1.87-9.34-4.77-13.02-8.51C38.09,496.89,35.44,492.65,33.73,488.01z"/>
</g>
</svg>
